<?xml version="1.0" encoding="UTF-8" standalone="no"?><!DOCTYPE svg PUBLIC "-//W3C//DTD SVG 1.1//EN" "http://www.w3.org/Graphics/SVG/1.1/DTD/svg11.dtd"><svg width="100%" height="100%" viewBox="0 0 1024 1024" version="1.1" xmlns="http://www.w3.org/2000/svg" xmlns:xlink="http://www.w3.org/1999/xlink" xml:space="preserve" xmlns:serif="http://www.serif.com/" style="fill-rule:evenodd;clip-rule:evenodd;stroke-linejoin:round;stroke-miterlimit:2;"><path d="M1024,256l0,512c0,141.29 -114.71,256 -256,256l-512,0c-141.29,0 -256,-114.71 -256,-256l0,-512c0,-141.29 114.71,-256 256,-256l512,0c141.29,0 256,114.71 256,256Z" style="fill:#1d7d7e;"/><g><path d="M531.72,180.821c1.071,0.491 2.142,0.982 3.246,1.489c14.931,6.911 29.29,14.036 42.76,23.567c2.336,1.575 4.671,3.15 7.078,4.773l0,-44.146l90.832,0l0,242.207c-11.678,2.756 -23.357,5.512 -35.389,8.352c-6.579,2.218 -12.6,4.355 -18.874,7.159c-0.774,0.333 -1.548,0.666 -2.345,1.008c-11.682,5.043 -22.349,11.195 -32.964,18.248c-1.351,0.896 -1.351,0.896 -2.729,1.81c-1.198,0.809 -1.198,0.809 -2.421,1.634c-2.007,1.163 -2.007,1.163 -4.366,1.163c0.172,-0.86 0.345,-1.72 0.523,-2.606c0.787,-3.928 1.57,-7.857 2.353,-11.787c0.271,-1.353 0.543,-2.705 0.823,-4.099c7.948,-39.961 1.33,-79.208 -20.213,-113.947c-3.936,-5.908 -8.311,-11.374 -12.976,-16.704c-0.917,-1.061 -1.834,-2.122 -2.779,-3.216c-12.643,-13.666 -28.584,-23.171 -45.586,-30.192c-1.116,-0.475 -2.232,-0.951 -3.382,-1.44c-30.147,-11.532 -63.292,-7.873 -92.232,5.117c-6.775,3.218 -12.834,7.294 -18.81,11.834c-1.014,0.761 -2.029,1.523 -3.073,2.307c-28.82,22.461 -46.778,54.835 -53.549,90.758c-0.429,2.033 -0.429,2.033 -0.866,4.106c-7.048,39.255 1.566,81.985 23.61,115.09c5.202,7.404 10.929,14.065 17.364,20.402l0,2.386c0.698,0.318 1.396,0.637 2.115,0.965c2.648,1.446 4.362,2.962 6.511,5.076c15.196,13.736 34.324,21.512 53.894,26.174c1.324,0.316 1.324,0.316 2.674,0.638c27.333,4.705 55.576,0.394 79.9,-12.57c1.21,-0.624 2.421,-1.249 3.668,-1.892c15.791,-8.662 28.237,-21.74 40.696,-34.609c5.446,-5.616 11.058,-10.896 16.977,-15.996c1.121,-0.992 2.241,-1.984 3.396,-3.006c26.988,-23.324 57.476,-37.478 92.154,-44.719c1.695,-0.383 1.695,-0.383 3.424,-0.774c6.223,-1.306 12.428,-1.893 18.766,-2.262c0.878,-0.051 1.756,-0.103 2.661,-0.156c9.231,-0.501 79.216,-0.413 88.394,-0.388c-0.592,-9.928 -7.078,-65.121 -7.078,-69.202c4.932,1.755 174.015,113.73 174.255,113.873c-1.701,4.294 -171.896,114.016 -174.255,114.016c0.663,-13.477 7.03,-60.631 8.257,-68.009c-12.019,0.073 -73.1,0.586 -75.147,0.594c-37.69,0.152 -65.346,14.86 -91.623,41.464c-2.646,2.701 -5.286,5.409 -7.92,8.122c-1.863,1.915 -3.735,3.82 -5.618,5.715c-1.479,1.499 -2.946,3.012 -4.378,4.558c-16.004,17.111 -37.328,30 -58.318,39.77c-1.171,0.549 -2.342,1.098 -3.548,1.664c-44.009,19.529 -96.876,22.702 -142.726,7.881c-0.878,-0.276 -1.755,-0.553 -2.659,-0.838c-30.106,-9.604 -55.085,-24.772 -78.735,-45.695c-1.241,-1.032 -2.483,-2.062 -3.728,-3.09c-2.71,-2.326 -4.985,-4.537 -7.258,-7.275c-3.074,-3.654 -6.222,-7.211 -9.437,-10.738c-40.816,-45.98 -61.657,-109.411 -58.613,-170.992c0.042,-0.897 0.084,-1.793 0.128,-2.717c1.367,-25.879 6.446,-52.074 16.387,-76.03c0.439,-1.065 0.878,-2.129 1.331,-3.226c9.576,-22.862 21.045,-45.056 37.597,-63.59c0.897,-1.021 1.794,-2.043 2.719,-3.095c1.792,-2.026 3.593,-4.043 5.405,-6.05c2.239,-2.503 4.396,-5.055 6.548,-7.634c31.89,-36.727 83.046,-60.99 130.746,-65.343c32.48,-2.074 66.424,0.29 96.406,14.112Z" style="fill:#c3ffff;"/><path d="M675.635,555.466c0.111,10.738 0.194,21.476 0.244,32.214c0.024,4.991 0.057,9.981 0.111,14.972c0.371,34.809 -1.23,68.588 -12.152,101.956c-0.511,1.564 -0.511,1.564 -1.032,3.161c-12.421,37.12 -35.522,73.786 -66.207,98.256c-0.644,0.515 -1.288,1.029 -1.952,1.56c-47.758,37.882 -105.786,55.933 -166.514,48.851c-3.231,-0.434 -6.444,-0.947 -9.658,-1.491c-0.903,-0.147 -1.806,-0.295 -2.737,-0.447c-44.336,-7.445 -87.434,-28.548 -118.766,-61.596l0,-2.386c-1.168,-0.394 -2.336,-0.787 -3.539,-1.193c-23.211,-21.515 -40.473,-55.473 -48.365,-85.906c8.944,-4.304 79.465,-26.354 80.765,-26.757c2.989,-0.685 2.989,-0.685 5.348,0.508c0.91,2.005 1.729,4.053 2.507,6.115c6.081,15.072 13.258,27.905 24.223,39.875c1.446,1.588 2.848,3.217 4.245,4.849c21.53,23.825 54.628,35.634 85.809,37.453c1.107,0.065 2.214,0.129 3.355,0.196c33.802,0.969 67.222,-10.31 92.196,-33.604c0.814,-0.727 1.627,-1.455 2.465,-2.205c20.542,-19.378 31.952,-46.319 36.758,-73.784c0.21,-1.192 0.42,-2.385 0.636,-3.613c1.013,-6.118 1.457,-11.648 1.134,-17.863c0.209,-3.49 0.663,-5.481 3.077,-8.032c3.809,-3.273 75.472,-71.088 88.05,-71.088Z" style="fill:#c3ffff;"/></g></svg>